<svg xmlns="http://www.w3.org/2000/svg" viewBox="0 0 64 64"><title>Asset 1</title><g id="b56ead63-8dce-4be8-ba95-ebd77c17e64c" data-name="Layer 2"><g id="35b309ef-d52e-491d-b832-540a1d9d8adc" data-name="Layer 1"><g id="1cdcf81a-386c-4440-b1ab-6f3ca8d3c5a3" data-name="Layer 1"><circle cx="32" cy="32" r="32" style="fill:#393939"/><g style="opacity:0.20000000298023224"><path d="M32.2,12A22.18,22.18,0,0,0,11.1,27.7c-1.6,5.2,5.2,3.1,5.6,9.2.4,4.9-1.1,6.6-1.4,9.6-.4,4,8.9,10,17.2,9.6,12.3-.7,21.7-9.8,21.7-22.1A21.81,21.81,0,0,0,32.2,12Zm-8,36a4,4,0,1,1,4-4A4,4,0,0,1,24.2,48Z" style="fill:#231f20"/></g><path d="M32.2,10A22.18,22.18,0,0,0,11.1,25.7c-1.6,5.2,5.2,3.1,5.6,9.2.4,4.9-1.1,6.6-1.4,9.6-.4,4,8.9,10,17.2,9.6,12.3-.7,21.7-9.8,21.7-22.1A21.81,21.81,0,0,0,32.2,10Zm-8,36a4,4,0,1,1,4-4A4,4,0,0,1,24.2,46Z" style="fill:#fff"/><g style="opacity:0.20000000298023224"><circle cx="20.9" cy="25" r="4" style="fill:#231f20"/></g><g style="opacity:0.20000000298023224"><circle cx="32.2" cy="19.6" r="4" style="fill:#231f20"/></g><g style="opacity:0.20000000298023224"><circle cx="43.4" cy="24.7" r="4" style="fill:#231f20"/></g><g style="opacity:0.20000000298023224"><circle cx="46.4" cy="37.3" r="4" style="fill:#231f20"/></g><g style="opacity:0.20000000298023224"><circle cx="37.3" cy="47.1" r="4" style="fill:#231f20"/></g><circle cx="20.9" cy="23" r="4" style="fill:#f66153"/><circle cx="32.2" cy="17.6" r="4" style="fill:#4ea1df"/><circle cx="43.4" cy="22.7" r="4" style="fill:#90d029"/><circle cx="46.4" cy="35.3" r="4" style="fill:#ffd34e"/><circle cx="37.3" cy="45.1" r="4" style="fill:#b267e6"/><circle cx="43.4" cy="22.7" r="4" style="fill:#b267e6"/><circle cx="37.3" cy="45.1" r="4" style="fill:#90d029"/><circle cx="32.2" cy="17.6" r="4" style="fill:#b267e6"/><circle cx="43.4" cy="22.7" r="4" style="fill:#4ea1df"/><circle cx="46.4" cy="35.3" r="4" style="fill:#90d029"/><circle cx="37.3" cy="45.1" r="4" style="fill:#ffd34e"/></g></g></g></svg>